<svg xmlns="http://www.w3.org/2000/svg" width="266.667" height="266.667" preserveAspectRatio="xMidYMid meet" version="1.0" viewBox="0 0 200 200"><metadata>Created by potrace 1.11, written by Peter Selinger 2001-2013</metadata><g fill="#000" stroke="none"><path d="M1067 1863 c-13 -21 -65 -110 -116 -198 -51 -88 -97 -167 -102 -175 -45 -72 -380 -656 -384 -671 -4 -13 0 -28 11 -40 18 -20 20 -21 104 -4 102 20 138 27 155 29 11 2 64 12 118 21 92 17 99 17 115 1 16 -16 15 -25 -21 -159 -21 -78 -40 -151 -42 -162 -3 -11 -27 -99 -54 -195 -45 -161 -48 -176 -33 -193 27 -30 54 -16 93 48 20 33 102 168 181 300 80 132 211 349 291 482 81 134 149 254 153 267 3 13 0 34 -6 46 -10 19 -17 21 -62 16 -28 -4 -53 -8 -57 -10 -3 -2 -28 -7 -55 -10 -27 -4 -52 -9 -56 -11 -3 -2 -24 -6 -46 -9 -22 -4 -51 -8 -64 -11 -187 -36 -190 -34 -160 94 11 43 21 90 24 103 3 13 7 32 10 43 14 60 48 213 52 235 3 14 10 43 16 65 18 67 20 105 8 120 -21 26 -49 17 -73 -22z" transform="translate(0.000000,200.000000) scale(0.100000,-0.100000)"/></g></svg>